<svg xmlns="http://www.w3.org/2000/svg" width="80" height="23"><path fill="rgba(0,0,0,0.5)" d="M1.9 20.828h7.4c.6 0 1.1.494 1.1 1.086 0 .592-.5 1.086-1.1 1.086H1.9c-.6 0-1.1-.494-1.1-1.086 0-.592.5-1.086 1.1-1.086zm9.4-8.193c.1-.099.1-.099.1-.197 0-.099 0-.099-.1-.198-.1-.098-.2-.197-.4-.197-.4-.198-.9-.395-1.4-.494-1.5-.296-3.1.494-3.8 1.777-.7-1.382-2.3-2.073-3.8-1.777-.5.1-1 .296-1.4.494-.1.099-.2.197-.4.296-.1 0-.1 0-.1.099v.197l5 5.33v.297c0 .099.1.197.3.197h.8c.1 0 .2-.098.3-.296v-.296zm-1.2-8.193c0 2.468-2 4.442-4.5 4.442S1.1 6.91 1.1 4.442 3.1 0 5.6 0s4.5 2.073 4.5 4.442zm15.599 10.365v2.468h-8V5.824h2.6v8.983zm1.1-8.983h2.6v11.55h-2.6zm9 11.648l-5.4-11.648h2.7l2.7 5.824 2.8-5.824h2.6zm13.099-3.554c1.2-.79 1.8-2.171 1.8-3.553v-.198c-.1-2.566-2.3-4.54-4.8-4.343h-3.7v11.55h2.5v-2.567h1.6l1.8 2.566h3.1zm-3-1.678h-1.2V8.292h1.6c1.1.099 1.9 1.086 1.8 2.172-.1 1.085-1.1 1.875-2.2 1.776zm6.6 5.035V5.824h6.9v2.468h-4.4V9.97h3.8v2.566h-3.8v2.27h4.4v2.469zm11.4.395c-1.1 0-2.1-.198-3.1-.691v-2.764c.9.592 2 .888 3.1.987.7 0 1.5-.296 1.5-1.086 0-1.777-4.7-1.974-4.7-5.33.1-1.876 1.8-3.258 3.6-3.16 1 0 1.999.198 2.899.494v2.665c-.9-.493-1.9-.69-2.9-.69-.4 0-1 .197-1 .69 0 .593.5.889 1 1.185 1.7.987 3.7 1.974 3.7 4.146.1 2.172-2 3.554-4.1 3.554zm16.098-6.318v-.79c-.2-2.961-2.8-5.232-5.8-5.034-3 .197-5.3 2.764-5.1 5.725 0 1.678.6 3.159 1.8 4.344h-.7v2.467h.3a4.41 4.41 0 013.1.889c1.7 1.086 3.7 1.58 5.8 1.48v-2.467h-.2c-1.4.098-2.7-.296-3.9-.987 2.8-.297 4.8-2.764 4.7-5.627zm-5.5 3.356c-1.9 0-2.9-1.678-2.9-3.356s1.1-3.356 2.9-3.356c1.9 0 2.9 1.678 2.9 3.356s-1 3.356-2.9 3.356z"/></svg>